<svg xmlns="http://www.w3.org/2000/svg" width="32" height="32" fill="none"><path fill="url(#a)" fill-rule="evenodd" d="M0 13.548c.214.601 2.205 4.257 2.558 4.592.36-.648.772-1.243 1.158-1.888l1.894-2.677c.235-.315.49-.496.712-.793 1.97-2.639 5.276-5.42 8.036-7.11 4.122-2.527 8.041-3.91 12.697-4.75C28.666.632 30.448.614 32 .295 21.386-1.093 10.854 2.45 2.78 10.319L0 13.548ZM9.762 28.31c.25-1.733 1.538-5.3 2.163-6.829 1.707-4.175 4.027-7.714 6.906-10.547.988-.971 3.53-3.193 4.703-3.752l-.95 1.096c-.334.357-.596.658-.906 1.045l-3.286 4.793c-2.662 4.66-4.367 10.436-4.325 16.742L14.056 32c-.719-.408-1.62-1.146-2.24-1.707-.388-.351-.678-.611-1.052-.966-.356-.337-.671-.745-1.003-1.015Zm-5.598-7.503c.593-.985 1.368-2.424 2.014-3.31.229-.314.326-.457.566-.774l3.208-3.911c2.687-2.871 6.374-5.6 9.711-7.222 1.477-.717 5.561-2.478 7.207-2.48-3.43 1.714-7.577 4.58-10.424 7.458-.836.845-3.071 3.291-3.638 4.165-.188.29-.375.489-.56.783-.173.278-.369.55-.54.807-1.79 2.681-3.034 5.442-4.143 8.633a3.515 3.515 0 0 1-.106.274c-.062.13-.07.132-.113.19-.478-.466-2.95-4.05-3.182-4.613Z" clip-rule="evenodd"/><defs><linearGradient id="a" x1="-34.051" x2="22.51" y1="-25.95" y2="2.054" gradientUnits="userSpaceOnUse"><stop stop-color="#F09F68"/><stop offset="1" stop-color="#A05F3C"/></linearGradient></defs></svg>